<svg class="ProductIcon ProductIcon--CorporateCard " width="40" height="40" viewBox="0 0 40 40" fill="none" xmlns="http://www.w3.org/2000/svg"><title>Corporate Card logo</title><g clip-path="url(#product-icon-corporate-SiteMenu-card-a)"><path d="M32.94 19.84l-.56-2.6-.12-.57-2.73-12.7a2.47 2.47 0 0 0-1.09-1.57 2.52 2.52 0 0 0-1.89-.34L2 7.22A2.5 2.5 0 0 0 .4 8.3a2.46 2.46 0 0 0-.34 1.87l3.42 15.87a2.51 2.51 0 0 0 2.96 1.9l3.31-.68v-.54.55L31 22.8a2.5 2.5 0 0 0 1.6-1.07c.37-.56.49-1.24.34-1.89z" fill="url(#product-icon-corporate-SiteMenu-card-b)"></path><path d="M37.5 17h-25c-.66 0-1.3.27-1.77.75a2.62 2.62 0 0 0-.73 1.83v16.84A2.54 2.54 0 0 0 12.5 39h25c1.38 0 2.5-1.15 2.5-2.58V19.58c0-.69-.26-1.34-.73-1.83A2.46 2.46 0 0 0 37.5 17z" fill="#0073E6"></path><path d="M32.33 17l.05.23.56 2.61A2.5 2.5 0 0 1 31 22.8l-21 4.42v-7.64c0-.62.21-1.21.6-1.68l.13-.15c.47-.48 1.1-.75 1.77-.75h19.83z" fill="url(#product-icon-corporate-SiteMenu-card-c)"></path></g><defs><linearGradient id="product-icon-corporate-SiteMenu-card-b" x1="16.5" y1="-.25" x2="16.5" y2="31.55" gradientUnits="userSpaceOnUse"><stop offset=".18" stop-color="#FF80FF"></stop><stop offset=".82" stop-color="#FF62DC"></stop></linearGradient><linearGradient id="product-icon-corporate-SiteMenu-card-c" x1="11.92" y1="17" x2="11.92" y2="28" gradientUnits="userSpaceOnUse"><stop stop-color="#00299C"></stop><stop offset="1" stop-color="#0073E6"></stop></linearGradient><clipPath id="product-icon-corporate-SiteMenu-card-a"><path fill="#fff" d="M0 0h40v40H0z"></path></clipPath></defs></svg>