<svg class="ProductIcon " width="16" height="16" viewBox="0 0 16 16" fill="none" xmlns="http://www.w3.org/2000/svg"><path d="M8.0004 0h-.0008C5.2388 0 3 2.2388 3 4.9998c0 1.381.5594 2.6308 1.4648 3.5358.702.7028 1.1472 1.5618 1.3436 2.4644h4.3838c.196-.9028.6412-1.7618 1.343-2.4644C12.4406 7.6306 13 6.3808 13 4.9998 13 2.2388 10.7614 0 8.0004 0ZM6.5862 6.4142 5.5254 7.4754c-1.3668-1.367-1.3668-3.5832 0-4.9504l1.0608 1.0608c-.7814.7812-.7812 2.0474 0 2.8284ZM10.0707 12.5H5.92871v1.429c-.0002 1.1436.9266 2.071 2.071 2.071 1.1434 0 2.07079-.9274 2.07079-2.071l.0002-1.429Z" fill="#727f96"></path></svg>