<svg class="ProductIcon " width="16" height="16" fill="none" viewBox="0 0 16 16"><path fill="#727f96" fill-rule="evenodd" d="M13.915 3.845H3.30625c-.25474 0-.46125.20651-.46125.46125v.9225c0 .25474.20651.46125.46125.46125H14.8375c.5095 0 .9225.41302.9225.9225V13.07c0 1.019-.826 1.845-1.845 1.845H2.845C1.82604 14.915 1 14.089 1 13.07V3.845C1 2.82604 1.82604 2 2.845 2h11.07c.5095 0 .9225.41302.9225.9225 0 .50948-.413.9225-.9225.9225ZM12.07 9.38c-.5095 0-.9225.41302-.9225.9225 0 .5095.413.9225.9225.9225h.9225c.5095 0 .9225-.413.9225-.9225 0-.50948-.413-.9225-.9225-.9225H12.07Z" clip-rule="evenodd"></path></svg>