<svg class="ProductIcon ProductIcon--PaymentLinks " width="32" height="27" xmlns="http://www.w3.org/2000/svg" fill="none" viewBox="0 0 32 27"><path fill="url(#product-icon-payment-links-SiteMenu-a)" d="M1.00096 0C.296022 0-.187628.709839.0703092 1.3659L2.92789 8.6341c.09246.23517.09246.49663 0 .7318L.0703097 16.6341C-.187628 17.2902.296021 18 1.00096 18H17.6321c.8222 0 1.5605-.5031 1.8613-1.2682l2.7522-7c.1849-.47034.1849-.99325 0-1.4636l-2.7522-7C19.1926.503093 18.4543 0 17.6321 0h-5.9945c-.0204 0-.0407.00030844-.061.00092133C11.5622.00030919 11.5478 0 11.5333 0H1.00096z"></path><path fill="url(#product-icon-payment-links-SiteMenu-b)" d="M1.00096 0C.296022 0-.187628.709839.0703092 1.3659L2.92789 8.6341c.09246.23517.09246.49663 0 .7318L.0703097 16.6341C-.187628 17.2902.296021 18 1.00096 18H17.6321c.8222 0 1.5605-.5031 1.8613-1.2682l2.7522-7c.1849-.47034.1849-.99325 0-1.4636l-2.7522-7C19.1926.503093 18.4543 0 17.6321 0h-5.9945c-.0204 0-.0407.00030844-.061.00092133C11.5622.00030919 11.5478 0 11.5333 0H1.00096z" opacity=".25"></path><path fill="#96F" d="M10.001 9c-.70498 0-1.18863.70984-.93069 1.3659l2.85759 7.2682c.0925.2352.0925.4966 0 .7318l-2.85759 7.2682C8.81237 26.2902 9.29602 27 10.001 27h16.6311c.8222 0 1.5605-.5031 1.8613-1.2682l2.7522-7c.1849-.4703.1849-.9933 0-1.4636l-2.7522-7C28.1926 9.50309 27.4543 9 26.6321 9H10.001z"></path><path fill="#0048E5" d="M22.3843 9c0 .24831-.0463.49663-.1387.7318l-2.7522 7C19.1926 17.4969 18.4543 18 17.6321 18h-5.6349c0-.1242-.0231-.2483-.0693-.3659l-2.85759-7.2682C8.81237 9.70984 9.29602 9 10.001 9h12.3833z"></path><path fill="url(#product-icon-payment-links-SiteMenu-c)" d="M10.001 9c-.70498 0-1.18863.70984-.93069 1.3659l2.85759 7.2682c.0925.2352.0925.4966 0 .7318l-2.85759 7.2682C8.81237 26.2902 9.29602 27 10.001 27h16.6311c.8222 0 1.5605-.5031 1.8613-1.2682l2.7522-7c.1849-.4703.1849-.9933 0-1.4636l-2.7522-7C28.1926 9.50309 27.4543 9 26.6321 9H10.001z"></path><defs><linearGradient id="product-icon-payment-links-SiteMenu-a" x1="11.3775" x2="11.2576" y1=".293872" y2="18.0004" gradientUnits="userSpaceOnUse"><stop offset=".225577" stop-color="#11EFE3"></stop><stop offset="1" stop-color="#21CFE0"></stop></linearGradient><radialGradient id="product-icon-payment-links-SiteMenu-b" cx="0" cy="0" r="1" gradientTransform="matrix(-7.0001 -13.49994 16.78746 -8.70477 14.033 13.5)" gradientUnits="userSpaceOnUse"><stop offset=".09375" stop-color="#fff"></stop><stop offset="1" stop-color="#fff" stop-opacity="0"></stop></radialGradient><linearGradient id="product-icon-payment-links-SiteMenu-c" x1="24.0333" x2="11.648" y1="16.5" y2="5.7194" gradientUnits="userSpaceOnUse"><stop stop-color="#96F"></stop><stop offset="1" stop-color="#96F" stop-opacity="0"></stop></linearGradient></defs></svg>